<svg version="1.1" id="Layer_1" xmlns="http://www.w3.org/2000/svg" xmlns:xlink="http://www.w3.org/1999/xlink" x="0px" y="0px"
	 viewBox="0 0 264.4 67.9" style="enable-background:new 0 0 264.4 67.9;" xml:space="preserve">
<style type="text/css">
	.st0{display:none;}
	.st1{display:inline;fill:#05513B;stroke:#FFFFFF;stroke-width:2;stroke-miterlimit:10;}
	.st2{display:inline;fill:#191919;stroke:#FFFFFF;stroke-width:2;stroke-miterlimit:10;}
	.st3{display:inline;stroke:#FFFFFF;stroke-width:2;stroke-miterlimit:10;}
	.st4{fill:#05513B;}
	.st5{fill:#606060;}
	.st6{fill:#848484;}
	.st7{display:none;opacity:0.54;}
	.st8{display:inline;fill:#0D1110;}
	.st9{display:inline;fill:#777777;}
</style>
<g class="st0">
	<path class="st1" d="M11.9,12.7v3.5c3.3-2.8,7.5-4.5,12-4.5c11.1,0,19.9,8.9,19.9,19.6C43.8,42.2,35.1,51,24,51
		c-4.5,0-8.6-1.7-12-4.4v18.5H2.6V12.7H11.9z M23.2,42.7c6.2,0,11.3-5,11.3-11.3c0-6.3-5.1-11.4-11.3-11.4
		c-6.3,0-11.3,5.1-11.3,11.4C11.9,37.7,16.9,42.7,23.2,42.7z"/>
	<path class="st1" d="M59.8,28.4l10.9-0.8v-1.4c0-3.7-2.4-5.9-6.8-5.9c-3.4,0-6.6,1.1-9.9,3.3l-4-6.7c4.3-3.2,9.3-5,15-5
		c8.9,0,14.8,5.2,14.8,13.1v14.6c0,1.4,0.7,2.2,2.1,2.2h1.9v8.1h-4.4c-3.6,0-6.3-1.7-7.6-4.4c-2.6,3.3-6.7,5.3-11.7,5.3
		c-7.4,0-12.9-4.8-12.9-11.4C47.4,32.8,51.9,29,59.8,28.4z M62.3,43.7c4.7,0,8.4-3,8.4-6.8v-2.4l-9.6,0.9c-3.2,0.3-4.8,1.6-4.8,4
		C56.4,42,58.8,43.7,62.3,43.7z"/>
	<path class="st1" d="M97.6,49.2L81.8,12.7h10.2l10.3,25.1l10.2-25.1h9.8L104,56.9c-2.4,6-5.6,8.1-11.3,8.1h-5.5v-7.9h3.6
		c2.6,0,4-0.9,5.1-3.7L97.6,49.2z"/>
	<path class="st2" d="M124.5,3.5c0-3,2.4-5.2,5.3-5.2c3,0,5.2,2.2,5.2,5.2s-2.2,5.3-5.2,5.3C126.9,8.8,124.5,6.5,124.5,3.5z
		 M134.5,49.9h-9.4V12.7h9.4V49.9z"/>
	<path class="st2" d="M145.7,40.6V20.9h-7.3v-8.1h7.3V1.9h9.4v10.8h8.2v8.1h-8.2v18.1c0,1.9,1.4,2.9,3.5,2.9h4.7v8.1h-7.3
		C149.2,49.9,145.7,45.9,145.7,40.6z"/>
	<path class="st3" d="M166.7,3.5c0-3,2.4-5.2,5.3-5.2c3,0,5.2,2.2,5.2,5.2s-2.2,5.3-5.2,5.3C169.1,8.8,166.7,6.5,166.7,3.5z
		 M176.7,49.9h-9.4V12.7h9.4V49.9z"/>
	<path class="st3" d="M202.4,51c-11.2,0-20.4-8.8-20.4-19.6c0-10.8,9.2-19.6,20.4-19.6c11.3,0,20.5,8.7,20.5,19.6
		C222.8,42.2,213.7,51,202.4,51z M202.4,20.1c-6.1,0-11.1,5-11.1,11.2c0,6.3,5,11.2,11.1,11.2c6.2,0,11.1-5,11.1-11.2
		C213.5,25.1,208.6,20.1,202.4,20.1z"/>
	<path class="st3" d="M262.4,49.9h-9.4V28.1c0-4.8-3.1-8-7.7-8c-4.5,0-7.8,3-7.8,8v21.8H228V12.7h9.4v3.2c2.6-2.7,6.2-4.2,10.2-4.2
		c8.7,0,14.7,6.4,14.7,14.5V49.9z"/>
</g>
<g>
	<path class="st4" d="M11.9,12.4V16c3.3-2.8,7.5-4.5,12-4.5c11.1,0,19.9,8.9,19.9,19.6c0,10.8-8.8,19.6-19.9,19.6
		c-4.5,0-8.6-1.7-12-4.4v18.5H2.6V12.4H11.9z M23.2,42.4c6.2,0,11.3-5,11.3-11.3c0-6.3-5.1-11.4-11.3-11.4
		c-6.3,0-11.3,5.1-11.3,11.4C11.9,37.4,16.9,42.4,23.2,42.4z"/>
	<path class="st4" d="M56.8,28.1l10.9-0.8v-1.4c0-3.7-2.4-5.9-6.8-5.9c-3.4,0-6.6,1.1-9.9,3.3l-4-6.7c4.3-3.2,9.3-5,15-5
		c8.9,0,14.8,5.2,14.8,13.1v14.6c0,1.4,0.7,2.2,2.1,2.2h1.9v8.1h-4.4c-3.6,0-6.3-1.7-7.6-4.4c-2.6,3.3-6.7,5.3-11.7,5.3
		c-7.4,0-12.9-4.8-12.9-11.4C44.4,32.5,48.9,28.7,56.8,28.1z M59.3,43.4c4.7,0,8.4-3,8.4-6.8v-2.4l-9.6,0.9c-3.2,0.3-4.8,1.6-4.8,4
		C53.4,41.7,55.8,43.4,59.3,43.4z"/>
	<path class="st4" d="M92.6,48.9L76.8,12.4h10.2l10.3,25.1l10.2-25.1h9.8L99,56.6c-2.4,6-5.6,8.1-11.3,8.1h-5.5v-7.9h3.6
		c2.6,0,4-0.9,5.1-3.7L92.6,48.9z"/>
	<path class="st5" d="M120.5,8.2c0-3,2.4-5.2,5.3-5.2c3,0,5.2,2.2,5.2,5.2s-2.2,5.3-5.2,5.3C122.9,13.5,120.5,11.2,120.5,8.2z
		 M130.5,54.7h-9.4V17.4h9.4V54.7z"/>
	<path class="st5" d="M141.7,45.3V25.6h-7.3v-8.1h7.3V6.6h9.4v10.8h8.2v8.1h-8.2v18.1c0,1.9,1.4,2.9,3.5,2.9h4.7v8.1h-7.3
		C145.2,54.7,141.7,50.6,141.7,45.3z"/>
	<path class="st6" d="M162.7,8.2c0-3,2.4-5.2,5.3-5.2c3,0,5.2,2.2,5.2,5.2s-2.2,5.3-5.2,5.3C165.1,13.5,162.7,11.2,162.7,8.2z
		 M172.7,54.7h-9.4V17.4h9.4V54.7z"/>
	<path class="st6" d="M195.4,55.7c-11.2,0-20.4-8.8-20.4-19.6c0-10.8,9.2-19.6,20.4-19.6c11.3,0,20.5,8.7,20.5,19.6
		C215.8,46.9,206.7,55.7,195.4,55.7z M195.4,24.8c-6.1,0-11.1,5-11.1,11.2c0,6.3,5,11.2,11.1,11.2c6.2,0,11.1-5,11.1-11.2
		C206.5,29.8,201.6,24.8,195.4,24.8z"/>
	<path class="st6" d="M252.4,54.7h-9.4V32.8c0-4.8-3.1-8-7.7-8c-4.5,0-7.8,3-7.8,8v21.8H218V17.4h9.4v3.2c2.6-2.7,6.2-4.2,10.2-4.2
		c8.7,0,14.7,6.4,14.7,14.5V54.7z"/>
</g>
<g class="st7">
	<path class="st8" d="M122.3,46.4h1.2v1.2h-1.2V46.4z"/>
	<path class="st8" d="M124.6,45.2v3.5h-3.5v-3.5H124.6z M124,45.8h-2.3v2.3h2.3V45.8z M123.4,52.2h-1.2v1.2h1.2V52.2z"/>
	<path class="st8" d="M124.6,51.1v3.5h-3.5v-3.5H124.6z M121.7,51.7V54h2.3v-2.3H121.7z M128.1,46.4h1.2v1.2h-1.2V46.4z"/>
	<path class="st8" d="M127,45.2v3.5h3.5v-3.5H127z M129.9,45.8v2.3h-2.3v-2.3H129.9z M125.8,45.8v-0.6h0.6v1.2h-0.6v1.2h-0.6v-1.7
		H125.8z M125.8,48.7v-1.2h0.6v1.2H125.8z M124.6,49.9v-0.6h0.6v-0.6h0.6v1.2h0.6v-0.6h2.9v0.6H127v0.6h-1.8v-0.6H124.6z
		 M124.6,49.9v0.6h-2.3v-0.6h-0.6v0.6h-0.6v-1.2h1.8v0.6H124.6z M130.5,50.5h-0.6v-1.2h0.6V50.5z M129.9,50.5h-0.6v1.2h1.2v-0.6
		h-0.6V50.5z M127.5,50.5h1.2v0.6h-0.6v0.6h-0.6V50.5z M128.7,52.2v-0.6h-0.6v0.6h-0.6v0.6h-1.2v0.6h1.8v-1.2H128.7z M128.7,52.2
		h1.8v0.6h-1.2v0.6h-0.6V52.2z M126.4,51.7v0.6h0.6v-1.2h-1.8v0.6H126.4z"/>
	<path class="st8" d="M125.2,52.2h0.6V54h2.3v0.6h-2.9V52.2z M130.5,53.4v1.2h-1.8V54h1.2v-0.6H130.5z"/>
</g>
<g class="st7">
	<path class="st8" d="M122.2,36.6h1.2v1.2h-1.2V36.6z"/>
	<path class="st8" d="M124.6,35.4v3.5h-3.5v-3.5H124.6z M124,36h-2.3v2.3h2.3V36z M123.4,42.4h-1.2v1.2h1.2V42.4z"/>
	<path class="st8" d="M124.6,41.3v3.5h-3.5v-3.5H124.6z M121.7,41.9v2.3h2.3v-2.3H121.7z M128.1,36.6h1.2v1.2h-1.2V36.6z"/>
	<path class="st8" d="M126.9,35.4v3.5h3.5v-3.5H126.9z M129.8,36v2.3h-2.3V36H129.8z M125.8,36v-0.6h0.6v1.2h-0.6v1.2h-0.6V36H125.8
		z M125.8,38.9v-1.2h0.6v1.2H125.8z M124.6,40.1v-0.6h0.6v-0.6h0.6v1.2h0.6v-0.6h2.9v0.6h-2.3v0.6h-1.8v-0.6H124.6z M124.6,40.1v0.6
		h-2.3v-0.6h-0.6v0.6h-0.6v-1.2h1.8v0.6H124.6z M130.4,40.7h-0.6v-1.2h0.6V40.7z M129.8,40.7h-0.6v1.2h1.2v-0.6h-0.6V40.7z
		 M127.5,40.7h1.2v0.6h-0.6v0.6h-0.6V40.7z M128.7,42.4v-0.6h-0.6v0.6h-0.6V43h-1.2v0.6h1.8v-1.2H128.7z M128.7,42.4h1.8V43h-1.2
		v0.6h-0.6V42.4z M126.3,41.9v0.6h0.6v-1.2h-1.8v0.6H126.3z"/>
	<path class="st8" d="M125.2,42.4h0.6v1.7h2.3v0.6h-2.9V42.4z M130.4,43.6v1.2h-1.8v-0.6h1.2v-0.6H130.4z"/>
</g>
<g class="st0">
	<path class="st9" d="M164.4,46.1h1.2v1.2h-1.2V46.1z"/>
	<path class="st9" d="M166.8,45v3.5h-3.5V45H166.8z M166.2,45.6h-2.3v2.3h2.3V45.6z M165.6,52h-1.2v1.2h1.2V52z"/>
	<path class="st9" d="M166.8,50.8v3.5h-3.5v-3.5H166.8z M163.8,51.4v2.3h2.3v-2.3H163.8z M170.3,46.1h1.2v1.2h-1.2V46.1z"/>
	<path class="st9" d="M169.1,45v3.5h3.5V45H169.1z M172,45.6v2.3h-2.3v-2.3H172z M167.9,45.6V45h0.6v1.2h-0.6v1.2h-0.6v-1.7H167.9z
		 M167.9,48.5v-1.2h0.6v1.2H167.9z M166.8,49.6V49h0.6v-0.6h0.6v1.2h0.6V49h2.9v0.6h-2.3v0.6h-1.8v-0.6H166.8z M166.8,49.6v0.6h-2.3
		v-0.6h-0.6v0.6h-0.6V49h1.8v0.6H166.8z M172.6,50.2H172V49h0.6V50.2z M172,50.2h-0.6v1.2h1.2v-0.6H172V50.2z M169.7,50.2h1.2v0.6
		h-0.6v0.6h-0.6V50.2z M170.9,52v-0.6h-0.6V52h-0.6v0.6h-1.2v0.6h1.8V52H170.9z M170.9,52h1.8v0.6h-1.2v0.6h-0.6V52z M168.5,51.4V52
		h0.6v-1.2h-1.8v0.6H168.5z"/>
	<path class="st9" d="M167.4,52h0.6v1.7h2.3v0.6h-2.9V52z M172.6,53.1v1.2h-1.8v-0.6h1.2v-0.6H172.6z"/>
</g>
<g class="st0">
	<path class="st9" d="M164.4,36.3h1.2v1.2h-1.2V36.3z"/>
	<path class="st9" d="M166.7,35.2v3.5h-3.5v-3.5H166.7z M166.1,35.8h-2.3v2.3h2.3V35.8z M165.6,42.2h-1.2v1.2h1.2V42.2z"/>
	<path class="st9" d="M166.7,41v3.5h-3.5V41H166.7z M163.8,41.6v2.3h2.3v-2.3H163.8z M170.2,36.3h1.2v1.2h-1.2V36.3z"/>
	<path class="st9" d="M169.1,35.2v3.5h3.5v-3.5H169.1z M172,35.8v2.3h-2.3v-2.3H172z M167.9,35.8v-0.6h0.6v1.2h-0.6v1.2h-0.6v-1.7
		H167.9z M167.9,38.7v-1.2h0.6v1.2H167.9z M166.7,39.8v-0.6h0.6v-0.6h0.6v1.2h0.6v-0.6h2.9v0.6h-2.3v0.6h-1.8v-0.6H166.7z
		 M166.7,39.8v0.6h-2.3v-0.6h-0.6v0.6h-0.6v-1.2h1.8v0.6H166.7z M172.6,40.4H172v-1.2h0.6V40.4z M172,40.4h-0.6v1.2h1.2V41H172V40.4
		z M169.7,40.4h1.2V41h-0.6v0.6h-0.6V40.4z M170.8,42.2v-0.6h-0.6v0.6h-0.6v0.6h-1.2v0.6h1.8v-1.2H170.8z M170.8,42.2h1.8v0.6h-1.2
		v0.6h-0.6V42.2z M168.5,41.6v0.6h0.6V41h-1.8v0.6H168.5z"/>
	<path class="st9" d="M167.3,42.2h0.6v1.7h2.3v0.6h-2.9V42.2z M172.6,43.3v1.2h-1.8v-0.6h1.2v-0.6H172.6z"/>
</g>
<g class="st0">
	<path class="st9" d="M164.4,26.5h1.2v1.2h-1.2V26.5z"/>
	<path class="st9" d="M166.8,25.4v3.5h-3.5v-3.5H166.8z M166.2,26h-2.3v2.3h2.3V26z M165.6,32.4h-1.2v1.2h1.2V32.4z"/>
	<path class="st9" d="M166.8,31.2v3.5h-3.5v-3.5H166.8z M163.8,31.8v2.3h2.3v-2.3H163.8z M170.3,26.5h1.2v1.2h-1.2V26.5z"/>
	<path class="st9" d="M169.1,25.4v3.5h3.5v-3.5H169.1z M172,26v2.3h-2.3V26H172z M167.9,26v-0.6h0.6v1.2h-0.6v1.2h-0.6V26H167.9z
		 M167.9,28.9v-1.2h0.6v1.2H167.9z M166.8,30v-0.6h0.6v-0.6h0.6V30h0.6v-0.6h2.9V30h-2.3v0.6h-1.8V30H166.8z M166.8,30v0.6h-2.3V30
		h-0.6v0.6h-0.6v-1.2h1.8V30H166.8z M172.6,30.6H172v-1.2h0.6V30.6z M172,30.6h-0.6v1.2h1.2v-0.6H172V30.6z M169.7,30.6h1.2v0.6
		h-0.6v0.6h-0.6V30.6z M170.9,32.4v-0.6h-0.6v0.6h-0.6v0.6h-1.2v0.6h1.8v-1.2H170.9z M170.9,32.4h1.8v0.6h-1.2v0.6h-0.6V32.4z
		 M168.5,31.8v0.6h0.6v-1.2h-1.8v0.6H168.5z"/>
	<path class="st9" d="M167.4,32.4h0.6v1.7h2.3v0.6h-2.9V32.4z M172.6,33.5v1.2h-1.8v-0.6h1.2v-0.6H172.6z"/>
</g>
<g class="st0">
	<path class="st9" d="M164.4,18.2h1.2v1h-1.2V18.2z"/>
	<path class="st9" d="M166.8,17.2v2.9h-3.5v-2.9H166.8z M166.2,17.7h-2.3v1.9h2.3V17.7z M165.6,23h-1.2v1h1.2V23z"/>
	<path class="st9" d="M166.8,22v2.9h-3.5V22H166.8z M163.8,22.5v1.9h2.3v-1.9H163.8z M170.3,18.2h1.2v1h-1.2V18.2z"/>
	<path class="st9" d="M169.1,17.2v2.9h3.5v-2.9H169.1z M172,17.7v1.9h-2.3v-1.9H172z M167.9,17.7v-0.5h0.6v1h-0.6v1h-0.6v-1.4H167.9
		z M167.9,20.1v-1h0.6v1H167.9z M166.8,21.1v-0.5h0.6v-0.5h0.6v1h0.6v-0.5h2.9v0.5h-2.3v0.5h-1.8v-0.5H166.8z M166.8,21.1v0.5h-2.3
		v-0.5h-0.6v0.5h-0.6v-1h1.8v0.5H166.8z M172.6,21.5H172v-1h0.6V21.5z M172,21.5h-0.6v1h1.2V22H172V21.5z M169.7,21.5h1.2V22h-0.6
		v0.5h-0.6V21.5z M170.9,23v-0.5h-0.6V23h-0.6v0.5h-1.2v0.5h1.8v-1H170.9z M170.9,23h1.8v0.5h-1.2v0.5h-0.6V23z M168.5,22.5V23h0.6
		v-1h-1.8v0.5H168.5z"/>
	<path class="st9" d="M167.4,23h0.6v1.4h2.3v0.5h-2.9V23z M172.6,23.9v1h-1.8v-0.5h1.2v-0.5H172.6z"/>
</g>
<g class="st7">
	<path class="st8" d="M122.3,26.7h1.2v1.2h-1.2V26.7z"/>
	<path class="st8" d="M124.7,25.6v3.5h-3.5v-3.5H124.7z M124.1,26.2h-2.3v2.3h2.3V26.2z M123.5,32.6h-1.2v1.2h1.2V32.6z"/>
	<path class="st8" d="M124.7,31.4v3.5h-3.5v-3.5H124.7z M121.7,32v2.3h2.3V32H121.7z M128.2,26.7h1.2v1.2h-1.2V26.7z"/>
	<path class="st8" d="M127,25.6v3.5h3.5v-3.5H127z M129.9,26.2v2.3h-2.3v-2.3H129.9z M125.8,26.2v-0.6h0.6v1.2h-0.6v1.2h-0.6v-1.7
		H125.8z M125.8,29.1v-1.2h0.6v1.2H125.8z M124.7,30.2v-0.6h0.6v-0.6h0.6v1.2h0.6v-0.6h2.9v0.6H127v0.6h-1.8v-0.6H124.7z
		 M124.7,30.2v0.6h-2.3v-0.6h-0.6v0.6h-0.6v-1.2h1.8v0.6H124.7z M130.5,30.8h-0.6v-1.2h0.6V30.8z M129.9,30.8h-0.6V32h1.2v-0.6h-0.6
		V30.8z M127.6,30.8h1.2v0.6h-0.6V32h-0.6V30.8z M128.8,32.6V32h-0.6v0.6h-0.6v0.6h-1.2v0.6h1.8v-1.2H128.8z M128.8,32.6h1.8v0.6
		h-1.2v0.6h-0.6V32.6z M126.4,32v0.6h0.6v-1.2h-1.8V32H126.4z"/>
	<path class="st8" d="M125.2,32.6h0.6v1.7h2.3v0.6h-2.9V32.6z M130.5,33.7v1.2h-1.8v-0.6h1.2v-0.6H130.5z"/>
</g>
<g class="st7">
	<path class="st8" d="M122.3,17.6h1.2v1.1h-1.2V17.6z"/>
	<path class="st8" d="M124.7,16.5v3.3h-3.5v-3.3H124.7z M124.1,17h-2.3v2.2h2.3V17z M123.5,23h-1.2v1.1h1.2V23z"/>
	<path class="st8" d="M124.7,21.9v3.3h-3.5v-3.3H124.7z M121.7,22.5v2.2h2.3v-2.2H121.7z M128.2,17.6h1.2v1.1h-1.2V17.6z"/>
	<path class="st8" d="M127,16.5v3.3h3.5v-3.3H127z M129.9,17v2.2h-2.3V17H129.9z M125.8,17v-0.5h0.6v1.1h-0.6v1.1h-0.6V17H125.8z
		 M125.8,19.8v-1.1h0.6v1.1H125.8z M124.7,20.8v-0.5h0.6v-0.5h0.6v1.1h0.6v-0.5h2.9v0.5H127v0.5h-1.8v-0.5H124.7z M124.7,20.8v0.5
		h-2.3v-0.5h-0.6v0.5h-0.6v-1.1h1.8v0.5H124.7z M130.5,21.4h-0.6v-1.1h0.6V21.4z M129.9,21.4h-0.6v1.1h1.2v-0.5h-0.6V21.4z
		 M127.6,21.4h1.2v0.5h-0.6v0.5h-0.6V21.4z M128.8,23v-0.5h-0.6V23h-0.6v0.5h-1.2v0.5h1.8V23H128.8z M128.8,23h1.8v0.5h-1.2v0.5
		h-0.6V23z M126.4,22.5V23h0.6v-1.1h-1.8v0.5H126.4z"/>
	<path class="st8" d="M125.2,23h0.6v1.6h2.3v0.5h-2.9V23z M130.5,24.1v1.1h-1.8v-0.5h1.2v-0.5H130.5z"/>
</g>
</svg>
