<svg version="1.1" id="Layer_1" xmlns="http://www.w3.org/2000/svg" xmlns:xlink="http://www.w3.org/1999/xlink" x="0px" y="0px"
	 viewBox="0 0 102.4 102.4" style="enable-background:new 0 0 102.4 102.4;" xml:space="preserve">
<style type="text/css">
	.st0{display:none;}
	.st1{opacity:0.29;}
	.st2{fill:#0B513A;stroke:#991616;stroke-width:0.5;stroke-miterlimit:10;}
	.st3{fill:#05513B;stroke:#000000;stroke-width:4;stroke-miterlimit:10;}
	.st4{fill:#FFFFFF;stroke:#000000;stroke-width:4;stroke-miterlimit:10;}
	.st5{fill:#05513B;}
	.st6{fill:#FFFFFF;}
	.st7{opacity:0.97;}
	.st8{opacity:0.39;}
	.st9{fill:#B7B7B7;}
</style>
<path class="st0" d="M55.4,105.2L55.4,105.2c-37.4,0-67.8-30.3-67.8-67.8v0C-12.4,0,18-30.4,55.4-30.4h0c37.4,0,67.8,30.3,67.8,67.8
	v0C123.2,74.8,92.8,105.2,55.4,105.2z"/>
<g class="st1">
	<path class="st2" d="M9.4,12.5c0-1.4,1.2-2.6,2.6-2.6h15.6c1.4,0,2.6,1.2,2.6,2.6s-1.2,2.6-2.6,2.6h-13v13c0,1.4-1.2,2.6-2.6,2.6
		s-2.6-1.2-2.6-2.6V12.5z M72,12.5c0-1.4,1.2-2.6,2.6-2.6h15.6c1.4,0,2.6,1.2,2.6,2.6v15.6c0,1.4-1.2,2.6-2.6,2.6s-2.6-1.2-2.6-2.6
		v-13h-13C73.1,15.1,72,13.9,72,12.5z M12,72.4c1.4,0,2.6,1.2,2.6,2.6v13h13c1.4,0,2.6,1.2,2.6,2.6s-1.2,2.6-2.6,2.6H12
		c-1.4,0-2.6-1.2-2.6-2.6V75C9.4,73.6,10.6,72.4,12,72.4z M90.2,72.4c1.4,0,2.6,1.2,2.6,2.6v15.6c0,1.4-1.2,2.6-2.6,2.6H74.6
		c-1.4,0-2.6-1.2-2.6-2.6s1.2-2.6,2.6-2.6h13V75C87.6,73.6,88.8,72.4,90.2,72.4z M30.3,30.7h5.2v5.2h-5.2V30.7z"/>
	<path class="st2" d="M45.9,20.3H19.8v26.1h26.1V20.3z M25,25.5h15.6v15.6H25V25.5z M35.5,67.2h-5.2v5.2h5.2V67.2z"/>
	<path class="st2" d="M45.9,56.8H19.8v26.1h26.1V56.8z M25,62h15.6v15.6H25V62z M66.8,30.7H72v5.2h-5.2V30.7z"/>
	<path class="st2" d="M56.3,20.3h26.1v26.1H56.3V20.3z M61.5,25.5v15.6h15.6V25.5H61.5z M51.1,51.6V62h5.2v5.2h-5.2v5.2h10.4V62h5.2
		v10.4H72v-5.2h10.4V62H66.8V51.6H51.1z M61.5,62h-5.2v-5.2h5.2V62z M82.4,72.4h-5.2v5.2H66.8v5.2h15.6V72.4z M61.5,82.9v-5.2H51.1
		v5.2H61.5z"/>
	<path class="st2" d="M72,56.8h10.4v-5.2H72V56.8z"/>
</g>
<g>
	<path class="st3" d="M9,36.8v2c1.9-1.6,4.3-2.5,6.8-2.5c6.3,0,11.3,5,11.3,11.1c0,6.1-5,11.1-11.3,11.1c-2.6,0-4.9-0.9-6.8-2.5
		v10.5H3.7V36.8H9z M15.4,53.9c3.5,0,6.4-2.8,6.4-6.4c0-3.6-2.9-6.5-6.4-6.5C11.8,41,9,43.9,9,47.4C9,51,11.8,53.9,15.4,53.9z"/>
	<path class="st3" d="M34.5,45.8l6.2-0.5v-0.8c0-2.1-1.4-3.4-3.9-3.4c-1.9,0-3.7,0.6-5.6,1.9L29,39.2c2.5-1.8,5.3-2.8,8.5-2.8
		c5.1,0,8.4,2.9,8.4,7.5v8.3c0,0.8,0.4,1.2,1.2,1.2h1.1V58h-2.5c-2,0-3.6-0.9-4.3-2.5c-1.5,1.9-3.8,3-6.6,3c-4.2,0-7.3-2.7-7.3-6.5
		C27.5,48.3,30,46.1,34.5,45.8z M36,54.4c2.7,0,4.8-1.7,4.8-3.9v-1.4l-5.5,0.5c-1.8,0.2-2.7,0.9-2.7,2.3C32.6,53.5,34,54.4,36,54.4z
		"/>
	<path class="st3" d="M54.9,57.6l-9-20.8h5.8l5.9,14.3l5.8-14.3h5.6L58.5,62c-1.4,3.4-3.2,4.6-6.4,4.6H49v-4.5h2
		c1.5,0,2.3-0.5,2.9-2.1L54.9,57.6z"/>
	<path class="st4" d="M73,33.8c0-2,1.6-3.4,3.5-3.4c2,0,3.4,1.5,3.4,3.4s-1.5,3.5-3.4,3.5C74.5,37.2,73,35.7,73,33.8z M79.6,64.5
		h-6.2V39.9h6.2V64.5z"/>
	<path class="st4" d="M87,58.3V45.2h-4.8v-5.4H87v-7.2h6.2v7.2h5.4v5.4h-5.4v12c0,1.3,0.9,1.9,2.3,1.9h3.1v5.4h-4.9
		C89.3,64.5,87,61.8,87,58.3z"/>
</g>
<g>
	<path class="st5" d="M9,37.1v2c1.9-1.6,4.3-2.5,6.8-2.5c6.3,0,11.3,5,11.3,11.1c0,6.1-5,11.1-11.3,11.1c-2.6,0-4.9-0.9-6.8-2.5
		v10.5H3.7V37.1H9z M15.4,54.1c3.5,0,6.4-2.8,6.4-6.4c0-3.6-2.9-6.5-6.4-6.5c-3.6,0-6.4,2.9-6.4,6.5C9,51.3,11.8,54.1,15.4,54.1z"/>
	<path class="st5" d="M34.5,46l6.2-0.5v-0.8c0-2.1-1.4-3.4-3.9-3.4c-1.9,0-3.7,0.6-5.6,1.9L29,39.5c2.5-1.8,5.3-2.8,8.5-2.8
		c5.1,0,8.4,2.9,8.4,7.5v8.3c0,0.8,0.4,1.2,1.2,1.2h1.1v4.6h-2.5c-2,0-3.6-0.9-4.3-2.5c-1.5,1.9-3.8,3-6.6,3c-4.2,0-7.3-2.7-7.3-6.5
		C27.5,48.5,30,46.3,34.5,46z M36,54.7c2.7,0,4.8-1.7,4.8-3.9v-1.4L35.3,50c-1.8,0.2-2.7,0.9-2.7,2.3C32.6,53.8,34,54.7,36,54.7z"/>
	<path class="st5" d="M54.9,57.8l-9-20.8h5.8l5.9,14.3l5.8-14.3h5.6L58.5,62.2c-1.4,3.4-3.2,4.6-6.4,4.6H49v-4.5h2
		c1.5,0,2.3-0.5,2.9-2.1L54.9,57.8z"/>
	<path class="st6" d="M73,34c0-2,1.6-3.4,3.5-3.4c2,0,3.4,1.5,3.4,3.4c0,2-1.5,3.5-3.4,3.5C74.5,37.5,73,36,73,34z M79.6,64.8h-6.2
		V40.1h6.2V64.8z"/>
	<path class="st6" d="M87,58.6V45.5h-4.8v-5.4H87V33h6.2v7.2h5.4v5.4h-5.4v12c0,1.3,0.9,1.9,2.3,1.9h3.1v5.4h-4.9
		C89.3,64.8,87,62.1,87,58.6z"/>
</g>
<g class="st7">
	<g class="st8">
		<path class="st9" d="M73.6,62.3h0.7V63h-0.7V62.3z"/>
		<path class="st9" d="M75,61.6v2.1h-2.2v-2.1H75z M74.7,61.9h-1.4v1.4h1.4V61.9z M74.3,65.9h-0.7v0.7h0.7V65.9z"/>
		<path class="st9" d="M75,65.1v2.1h-2.2v-2.1H75z M73.2,65.5v1.4h1.4v-1.4H73.2z M77.2,62.3h0.7V63h-0.7V62.3z"/>
		<path class="st9" d="M76.5,61.6v2.1h2.2v-2.1H76.5z M78.3,61.9v1.4h-1.4v-1.4H78.3z M75.8,61.9v-0.4h0.4v0.7h-0.4V63h-0.4v-1.1
			H75.8z M75.8,63.7V63h0.4v0.7H75.8z M75,64.4v-0.4h0.4v-0.4h0.4v0.7h0.4v-0.4h1.8v0.4h-1.4v0.4h-1.1v-0.4H75z M75,64.4v0.4h-1.4
			v-0.4h-0.4v0.4h-0.4v-0.7H74v0.4H75z M78.6,64.8h-0.4v-0.7h0.4V64.8z M78.3,64.8h-0.4v0.7h0.7v-0.4h-0.4V64.8z M76.8,64.8h0.7v0.4
			h-0.4v0.4h-0.4V64.8z M77.6,65.9v-0.4h-0.4v0.4h-0.4v0.4h-0.7v0.4h1.1v-0.7H77.6z M77.6,65.9h1.1v0.4h-0.7v0.4h-0.4V65.9z
			 M76.1,65.5v0.4h0.4v-0.7h-1.1v0.4H76.1z"/>
		<path class="st9" d="M75.4,65.9h0.4v1.1h1.4v0.4h-1.8V65.9z M78.6,66.6v0.7h-1.1v-0.4h0.7v-0.4H78.6z"/>
	</g>
	<g class="st8">
		<path class="st9" d="M73.6,56.3h0.7V57h-0.7V56.3z"/>
		<path class="st9" d="M75,55.5v2.1h-2.2v-2.1H75z M74.7,55.9h-1.4v1.4h1.4V55.9z M74.3,59.8h-0.7v0.7h0.7V59.8z"/>
		<path class="st9" d="M75,59.1v2.1h-2.2v-2.1H75z M73.2,59.5v1.4h1.4v-1.4H73.2z M77.2,56.3h0.7V57h-0.7V56.3z"/>
		<path class="st9" d="M76.5,55.5v2.1h2.2v-2.1H76.5z M78.3,55.9v1.4h-1.4v-1.4H78.3z M75.7,55.9v-0.4h0.4v0.7h-0.4V57h-0.4v-1.1
			H75.7z M75.7,57.7V57h0.4v0.7H75.7z M75,58.4V58h0.4v-0.4h0.4v0.7h0.4V58h1.8v0.4h-1.4v0.4h-1.1v-0.4H75z M75,58.4v0.4h-1.4v-0.4
			h-0.4v0.4h-0.4V58h1.1v0.4H75z M78.6,58.8h-0.4V58h0.4V58.8z M78.3,58.8h-0.4v0.7h0.7v-0.4h-0.4V58.8z M76.8,58.8h0.7v0.4h-0.4
			v0.4h-0.4V58.8z M77.5,59.8v-0.4h-0.4v0.4h-0.4v0.4h-0.7v0.4h1.1v-0.7H77.5z M77.5,59.8h1.1v0.4h-0.7v0.4h-0.4V59.8z M76.1,59.5
			v0.4h0.4v-0.7h-1.1v0.4H76.1z"/>
		<path class="st9" d="M75.4,59.8h0.4v1.1h1.4v0.4h-1.8V59.8z M78.6,60.6v0.7h-1.1v-0.4h0.7v-0.4H78.6z"/>
	</g>
	<g class="st8">
		<path class="st9" d="M73.6,50.2h0.7v0.7h-0.7V50.2z"/>
		<path class="st9" d="M75,49.5v2.1h-2.2v-2.1H75z M74.7,49.9h-1.4v1.4h1.4V49.9z M74.3,53.8h-0.7v0.7h0.7V53.8z"/>
		<path class="st9" d="M75,53.1v2.1h-2.2v-2.1H75z M73.2,53.4v1.4h1.4v-1.4H73.2z M77.2,50.2h0.7v0.7h-0.7V50.2z"/>
		<path class="st9" d="M76.5,49.5v2.1h2.2v-2.1H76.5z M78.3,49.9v1.4h-1.4v-1.4H78.3z M75.8,49.9v-0.4h0.4v0.7h-0.4v0.7h-0.4v-1.1
			H75.8z M75.8,51.7v-0.7h0.4v0.7H75.8z M75,52.4V52h0.4v-0.4h0.4v0.7h0.4V52h1.8v0.4h-1.4v0.4h-1.1v-0.4H75z M75,52.4v0.4h-1.4
			v-0.4h-0.4v0.4h-0.4V52H74v0.4H75z M78.6,52.7h-0.4V52h0.4V52.7z M78.3,52.7h-0.4v0.7h0.7v-0.4h-0.4V52.7z M76.8,52.7h0.7v0.4
			h-0.4v0.4h-0.4V52.7z M77.6,53.8v-0.4h-0.4v0.4h-0.4v0.4h-0.7v0.4h1.1v-0.7H77.6z M77.6,53.8h1.1v0.4h-0.7v0.4h-0.4V53.8z
			 M76.1,53.4v0.4h0.4v-0.7h-1.1v0.4H76.1z"/>
		<path class="st9" d="M75.4,53.8h0.4v1.1h1.4v0.4h-1.8V53.8z M78.6,54.5v0.7h-1.1v-0.4h0.7v-0.4H78.6z"/>
	</g>
	<g class="st8">
		<path class="st9" d="M73.6,44h0.7v0.7h-0.7V44z"/>
		<path class="st9" d="M75,43.2v2.2h-2.2v-2.2H75z M74.7,43.6h-1.4v1.5h1.4V43.6z M74.3,47.7h-0.7v0.7h0.7V47.7z"/>
		<path class="st9" d="M75,47v2.2h-2.2V47H75z M73.2,47.3v1.5h1.4v-1.5H73.2z M77.2,44h0.7v0.7h-0.7V44z"/>
		<path class="st9" d="M76.5,43.2v2.2h2.2v-2.2H76.5z M78.3,43.6v1.5h-1.4v-1.5H78.3z M75.8,43.6v-0.4h0.4V44h-0.4v0.7h-0.4v-1.1
			H75.8z M75.8,45.5v-0.7h0.4v0.7H75.8z M75,46.2v-0.4h0.4v-0.4h0.4v0.7h0.4v-0.4h1.8v0.4h-1.4v0.4h-1.1v-0.4H75z M75,46.2v0.4h-1.4
			v-0.4h-0.4v0.4h-0.4v-0.7H74v0.4H75z M78.6,46.6h-0.4v-0.7h0.4V46.6z M78.3,46.6h-0.4v0.7h0.7V47h-0.4V46.6z M76.8,46.6h0.7V47
			h-0.4v0.4h-0.4V46.6z M77.6,47.7v-0.4h-0.4v0.4h-0.4v0.4h-0.7v0.4h1.1v-0.7H77.6z M77.6,47.7h1.1v0.4h-0.7v0.4h-0.4V47.7z
			 M76.1,47.3v0.4h0.4V47h-1.1v0.4H76.1z"/>
		<path class="st9" d="M75.4,47.7h0.4v1.1h1.4v0.4h-1.8V47.7z M78.6,48.5v0.7h-1.1v-0.4h0.7v-0.4H78.6z"/>
	</g>
</g>
</svg>

